<?xml version="1.0" encoding="utf-8"?>
<!-- Generator: Adobe Illustrator 23.1.0, SVG Export Plug-In . SVG Version: 6.00 Build 0)  -->
<svg version="1.1" id="Слой_1" xmlns="http://www.w3.org/2000/svg" xmlns:xlink="http://www.w3.org/1999/xlink" x="0px" y="0px"
	 viewBox="0 0 256 256" style="enable-background:new 0 0 256 256;" xml:space="preserve">
<style type="text/css">
	.st0{fill:none;stroke:#2A2E00;stroke-width:16;stroke-linecap:round;stroke-miterlimit:10;}
	.st1{fill:none;stroke:#150004;stroke-width:12;stroke-linecap:round;stroke-miterlimit:10;}
	.st2{fill:none;stroke:#666666;stroke-width:12;stroke-linecap:round;stroke-miterlimit:10;}
</style>
<g>
	<path class="st0" d="M186.87,43c29.82,17.63,39.07,55.06,20.65,83.61c-14.74,22.84-46.02,29.91-69.88,15.81
		c-19.09-11.28-25-35.24-13.21-53.51c9.43-14.61,29.45-19.14,44.72-10.12c12.22,7.22,16,22.55,8.46,34.25
		c-6.04,9.35-18.85,12.25-28.62,6.48c-7.82-4.62-10.24-14.43-5.41-21.92c3.86-5.99,12.06-7.84,18.32-4.14
		c5,2.96,6.55,9.24,3.46,14.03c-2.47,3.83-7.72,5.02-11.72,2.65"/>
	<path class="st1" d="M186.87,43c29.82,17.63,39.07,55.06,20.65,83.61c-14.74,22.84-46.02,29.91-69.88,15.81
		c-19.09-11.28-25-35.24-13.21-53.51c9.43-14.61,29.45-19.14,44.72-10.12c12.22,7.22,16,22.55,8.46,34.25
		c-6.04,9.35-18.85,12.25-28.62,6.48c-7.82-4.62-10.24-14.43-5.41-21.92c3.86-5.99,12.06-7.84,18.32-4.14
		c5,2.96,6.55,9.24,3.46,14.03c-2.47,3.83-7.72,5.02-11.72,2.65"/>
</g>
<line class="st2" x1="129" y1="174" x2="107" y2="219"/>
<line class="st2" x1="171" y1="172" x2="200" y2="246"/>
</svg>
